<svg width="50" height="50" viewBox="0 0 50 50" xmlns="http://www.w3.org/2000/svg"><g id="Layer_2" data-name="Layer 2">
    <style>
    #favicon {
      fill: #000000;
    }
    @media (prefers-color-scheme: dark) {
      #favicon {
        fill: #ffdf5e;
      }
    }
    </style>
    <path id="favicon" width="50" height="50" d="M3.78,10.35l-.07.09v1.21L4,12.1l-.31.34v3.13c.14-.13.23-.28.13-.44.16-.12.12-.24.08-.46h0c0-.06-.1-.11-.1-.16s.16,0,.2-.17c.27.07.14.11.24.34s0,.29.18.31c-.11.16-.26.15-.35.31s-.11.3,0,.61l.47-.1V16H6.22V11.27A.52.52,0,0,0,6,11.15s-.06-.08-.09-.12h0l-.24,0h0c-.09,0-.17-.07-.13-.18a.71.71,0,0,1,.32-.4l.41,0V9.84c-.15,0-.31-.08-.48-.05,0-.32.27-.45.48-.64V2.29H7.41a1.19,1.19,0,0,1,.93.34,1.77,1.77,0,0,1,.31,1.16v1.9a1.78,1.78,0,0,1-.31,1.17,1.06,1.06,0,0,1-.64.32v2.3a3.48,3.48,0,0,0,2.52-1,4.15,4.15,0,0,0,.94-2.95V4A4.14,4.14,0,0,0,10.22,1,3.65,3.65,0,0,0,7.41,0H3.71V10.31ZM6.16,15l0,0h0ZM7.82,7.3l0,0V7.26h0S7.83,7.29,7.82,7.3ZM5.57,4.1l0,0,0,.06,0,0ZM4.4,13.94l-.18-.32C4.42,13.66,4.42,13.66,4.4,13.94Zm1-.73,0,.07s0,.05-.06.07,0,0,0-.08S5.4,13.23,5.42,13.21Zm-.21-1.15,0,0c0,.05,0,.09,0,.22a1.2,1.2,0,0,1-.09-.19S5.19,12.08,5.21,12.06ZM5,10a.18.18,0,0,1,.13.12c0,.16-.12.17-.28.12C4.84,10.13,4.83,10,5,10Zm-.26-.58a.71.71,0,0,1,.14,0v.08l-.29,0C4.57,9.42,4.65,9.45,4.71,9.44Zm-.29,1.93a.15.15,0,0,1,.18.14c0,.13-.09.22-.27.24,0,0-.09-.07-.1-.12A.23.23,0,0,1,4.42,11.37Zm-.2,1.84v0l0,0Z"/></g></svg>